<?xml version="1.0" encoding="utf-8"?>
<!-- Generator: Adobe Illustrator 20.1.0, SVG Export Plug-In . SVG Version: 6.00 Build 0)  -->
<svg version="1.1" id="Layer_1" xmlns="http://www.w3.org/2000/svg" xmlns:xlink="http://www.w3.org/1999/xlink" x="0px" y="0px"
	 viewBox="0 0 595.3 595.3" style="enable-background:new 0 0 595.3 595.3;" xml:space="preserve">
<style type="text/css">
	.st0{fill:#E0A926;}
	.st1{fill:#FEEB53;}
	.st2{fill:#F6C315;}
</style>
<g transform="scale(0.6)">
	<g>
		<polygon class="st0" points="496.6,107.7 159.4,302.5 496.6,497.2 832.7,302.5 		"/>
		<polygon class="st1" points="159.4,302.5 159.4,691.9 496.6,886.7 496.6,497.2 		"/>
		<polygon class="st2" points="496.6,886.7 832.7,691.9 832.7,302.5 496.6,497.2 		"/>
	</g>
	<g transform="translate(303, 350) scale(0.618) rotate(180) translate(-303, -350)">
		<polygon class="st0" points="-10.3,-277.7 -347.5,-82.9 -10.3,111.8 325.8,-82.9 		"/>
		<polygon class="st1" points="-347.5,-82.9 -347.5,306.6 -10.3,501.3 -10.3,111.8 		"/>
		<polygon class="st2" points="-10.3,501.3 325.8,306.6 325.8,-82.9 -10.3,111.8 		"/>
	</g>
	<g transform="translate(303, 350) scale(0.474) translate(-303, -350)">
		<polygon class="st0" points="711.5,271.1 374.3,465.8 711.5,660.5 1047.6,465.8 		"/>
		<polygon class="st1" points="374.3,465.8 374.3,855.3 711.5,1050 711.5,660.5 		"/>
		<polygon class="st2" points="711.5,1050 1047.6,855.3 1047.6,465.8 711.5,660.5 		"/>
	</g>
</g>
</svg>
